<?xml version="1.0" encoding="iso-8859-1"?>
<!-- Generator: Adobe Illustrator 19.0.0, SVG Export Plug-In . SVG Version: 6.00 Build 0)  -->
<svg version="1.1" id="Capa_1" xmlns="http://www.w3.org/2000/svg" xmlns:xlink="http://www.w3.org/1999/xlink" x="0px" y="0px"
	 viewBox="0 0 512 512" style="enable-background:new 0 0 512 512;" xml:space="preserve">
<circle style="fill:#FCBF29;" cx="405.785" cy="15.703" r="14.979"/>
<path style="fill:#FEDB41;" d="M196.187,149.122L196.187,149.122c-5.676,0-10.869-3.203-13.399-8.279l-17.729-35.487l-35.487-17.729
	c-5.076-2.53-8.279-7.723-8.279-13.399s3.203-10.869,8.279-13.399L165.059,43.1l17.729-35.487c5.061-10.152,21.707-10.152,26.798,0
	L227.33,43.1l35.472,17.729c5.076,2.545,8.279,7.723,8.279,13.399s-3.203,10.854-8.279,13.399l-35.472,17.729l-17.744,35.487
	C207.041,145.919,201.863,149.122,196.187,149.122z"/>
<path style="fill:#FCBF29;" d="M496.659,120.555h-14.979v-14.979c0-8.279-6.7-14.979-14.979-14.979s-14.979,6.7-14.979,14.979
	v14.979h-14.979c-8.279,0-14.979,6.7-14.979,14.979c0,8.279,6.7,14.979,14.979,14.979h14.979v14.979
	c0,8.279,6.7,14.979,14.979,14.979s14.979-6.7,14.979-14.979v-14.979h14.979c8.279,0,14.979-6.7,14.979-14.979
	S504.939,120.555,496.659,120.555z"/>
<path style="fill:#FEC478;" d="M436.744,512H293.148c-27.861,0-54.223-10.785-73.994-30.857l-33.552-33.553
	c-2.997-2.695-4.495-6.59-4.495-10.484V255.364c0-8.389,6.59-14.979,14.979-14.979h29.958l47.334-47.634
	c27.56-27.26,42.539-63.51,42.539-102.154c0-16.477,13.481-29.958,29.958-29.958c16.477,0,29.958,13.481,29.958,29.958v22.768
	c0,36.248-6.59,72.197-19.173,106.947l-7.489,20.073h81.285l2.398,102.255L436.744,512z"/>
<path style="fill:#FEB756;" d="M436.744,512H293.148c-27.861,0-54.223-10.785-73.994-30.857l-33.552-33.553
	c-2.997-2.695-4.495-6.59-4.495-10.484V342.64H432.85L436.744,512z"/>
<path style="fill:#FEDBAB;" d="M478.086,376.193c18.574,0,33.552,15.977,33.552,34.551c0,18.873-14.979,33.852-33.552,33.852
	h-29.958c18.574,0,33.552,14.979,33.552,33.852c0,18.574-14.979,33.552-33.552,33.552h-53.724
	c-18.574,0-33.552-14.979-33.552-33.552c0-18.873,14.979-33.852,33.552-33.852c-18.574,0-33.552-14.979-33.552-33.852
	c0-18.574,14.979-34.551,33.552-34.551c-18.574,0-33.552-14.979-33.552-33.552c0-18.873,14.979-34.851,33.552-34.851
	c-18.574,0-33.552-14.979-33.552-33.852c0-18.574,14.979-33.552,33.552-33.552h83.682c18.574,0,33.552,14.979,33.552,33.552
	c0,18.873-14.979,33.852-33.552,33.852c18.574,0,33.552,15.977,33.552,34.851C511.638,361.214,496.659,376.193,478.086,376.193z"/>
<path style="fill:#FEC478;" d="M511.638,410.744c0,18.873-14.979,33.852-33.552,33.852h-29.958
	c18.574,0,33.552,14.979,33.552,33.852c0,18.574-14.979,33.552-33.552,33.552h-53.724c-18.574,0-33.552-14.979-33.552-33.552
	c0-18.873,14.979-33.852,33.552-33.852c-18.574,0-33.552-14.979-33.552-33.852c0-18.574,14.979-34.551,33.552-34.551
	c-18.574,0-33.552-14.979-33.552-33.552h150.786c0,18.574-14.979,33.552-33.552,33.552
	C496.659,376.193,511.638,392.17,511.638,410.744z"/>
<path style="fill:#4F3F82;" d="M196.085,210.428H136.17c-8.389,0-14.979,6.59-14.979,14.979v241.658
	c0,8.387,6.59,14.979,14.979,14.979h59.915c8.389,0,14.979-6.592,14.979-14.979V225.406
	C211.064,217.017,204.473,210.428,196.085,210.428z"/>
<path style="fill:#3B2C68;" d="M121.191,342.64h89.873v124.424c0,8.387-6.59,14.979-14.979,14.979H136.17
	c-8.389,0-14.979-6.592-14.979-14.979C121.191,467.064,121.191,342.64,121.191,342.64z"/>
<path style="fill:#17CEB4;" d="M136.17,180.47H15.341c-8.389,0-14.979,6.59-14.979,14.979v301.573
	c0,8.387,6.59,14.979,14.979,14.979H136.17c8.389,0,14.979-6.592,14.979-14.979V195.449
	C151.149,187.06,144.558,180.47,136.17,180.47z"/>
<path style="fill:#11AD94;" d="M0.362,342.64h150.786v154.381c0,8.387-6.59,14.979-14.979,14.979H15.341
	c-8.389,0-14.979-6.592-14.979-14.979C0.362,497.022,0.362,342.64,0.362,342.64z"/>
<circle style="fill:#CAE8F9;" cx="76.252" cy="437.112" r="14.979"/>
<g>
</g>
<g>
</g>
<g>
</g>
<g>
</g>
<g>
</g>
<g>
</g>
<g>
</g>
<g>
</g>
<g>
</g>
<g>
</g>
<g>
</g>
<g>
</g>
<g>
</g>
<g>
</g>
<g>
</g>
</svg>
