<?xml version="1.0" encoding="iso-8859-1"?>
<!-- Generator: Adobe Illustrator 19.0.0, SVG Export Plug-In . SVG Version: 6.00 Build 0)  -->
<svg version="1.1" id="Capa_1" xmlns="http://www.w3.org/2000/svg" xmlns:xlink="http://www.w3.org/1999/xlink" x="0px" y="0px"
	 viewBox="0 0 512 512" style="enable-background:new 0 0 512 512;" xml:space="preserve">
<path style="fill:#FFFFFF;" d="M469.779,401.37H42.221c-18.891,0-34.205-15.314-34.205-34.205V110.63
	c0-18.891,15.314-34.205,34.205-34.205h427.557c18.891,0,34.205,15.314,34.205,34.205v256.534
	C503.983,386.055,488.669,401.37,469.779,401.37z"/>
<path style="fill:#E4EAF8;" d="M153.386,290.205c-47.227,0-85.511,38.285-85.511,85.512c0,8.939,1.382,17.553,3.927,25.653h163.169
	c2.545-8.1,3.927-16.714,3.927-25.653C238.898,328.489,200.613,290.205,153.386,290.205z"/>
<path style="fill:#FFC850;" d="M256,367.165H50.772c-4.722,0-8.551-3.829-8.551-8.551V119.182c0-4.722,3.829-8.551,8.551-8.551H256
	c4.722,0,8.551,3.829,8.551,8.551v239.432C264.551,363.336,260.722,367.165,256,367.165z"/>
<path style="fill:#FEA82F;" d="M68.307,367.165h170.158c-4.292-43.211-40.739-76.96-85.08-76.96S72.598,323.954,68.307,367.165z"/>
<path style="fill:#FFFFFF;" d="M221.795,332.96c4.722,0,8.551-3.829,8.551-8.551v-21.878c0-7.361-4.711-13.897-11.694-16.225
	l-33.779-11.26c-3.486-1.162-5.839-4.42-5.847-8.094l-0.032-15.206c5.338-2.669,8.9-7.928,9.395-13.876l1.868-20.362
	c3.579-3.135,5.884-7.684,5.884-12.815v-51.307h-59.858c-14.168,0-25.653,11.485-25.653,25.653v25.653
	c0,5.131,2.307,9.681,5.884,12.815l1.868,20.362c0.495,5.947,4.056,11.207,9.395,13.876l-0.032,15.206
	c-0.007,3.674-2.361,6.933-5.847,8.094l-33.779,11.26c-6.984,2.328-11.694,8.863-11.694,16.225v21.878
	c0,4.722,3.829,8.551,8.551,8.551H221.795z"/>
<path style="fill:#E4EAF8;" d="M84.977,332.96h136.818c1.745,0,3.275-0.651,4.628-1.549c-15-24.672-42.053-41.207-73.037-41.207
	s-58.038,16.535-73.038,41.207C81.702,332.309,83.232,332.96,84.977,332.96z"/>
<circle style="fill:#ABFFDB;" cx="315.858" cy="221.795" r="17.102"/>
<g>
	<circle style="fill:#FFC850;" cx="384.267" cy="221.795" r="17.102"/>
	<circle style="fill:#FFC850;" cx="452.676" cy="221.795" r="17.102"/>
</g>
<circle style="fill:#ABFFDB;" cx="153.386" cy="375.716" r="59.858"/>
<path style="fill:#474D54;" d="M469.779,68.409H42.221C18.941,68.409,0,87.35,0,110.63v256.534c0,23.28,18.941,42.221,42.221,42.221
	h52.268c11.716,20.414,33.719,34.205,58.897,34.205s47.181-13.791,58.897-34.205h257.495c23.28,0,42.221-18.941,42.221-42.221
	V110.63C512,87.35,493.059,68.409,469.779,68.409z M153.386,427.557c-28.585,0-51.841-23.256-51.841-51.841
	c0-28.585,23.256-51.841,51.841-51.841s51.841,23.256,51.841,51.841C205.228,404.302,181.972,427.557,153.386,427.557z
	 M85.683,375.186c-0.137,6.079,0.558,12.195,2.168,18.167H42.221c-14.44,0-26.188-11.748-26.188-26.188V110.63
	c0-14.44,11.748-26.188,26.188-26.188h427.557c14.44,0,26.188,11.748,26.188,26.188v256.534c0,14.44-11.748,26.188-26.188,26.188
	c-12.64,0-25.278,0-37.918,0c-28.001,0-56.001,0-84.001,0c-28.563,0-57.126,0-85.69,0c-9.868,0-19.736,0-29.604,0
	c-3.022,0-6.042-0.004-9.064,0c-0.692,0.001-2.166,0.289-2.794,0c-2.663-1.225-0.825-4.116-0.353-7.245
	c3.538-23.452-6.014-48.633-24.624-63.443c-20.543-16.35-50.928-19.103-74.104-6.765C99.92,327.454,86.227,351.023,85.683,375.186z"
	/>
<path style="fill:#48C397;" d="M173.13,353.197l-26.115,28.489l-14.066-12.056c-3.363-2.882-8.422-2.493-11.304,0.869
	s-2.493,8.423,0.869,11.304l19.953,17.102c1.509,1.293,3.365,1.93,5.214,1.93c2.172,0,4.334-0.878,5.912-2.6l31.354-34.205
	c2.992-3.263,2.771-8.334-0.493-11.326C181.192,349.712,176.122,349.933,173.13,353.197z"/>
<g>
	<path style="fill:#ABB0B7;" d="M298.756,135.749h119.716c4.427,0,8.017-3.589,8.017-8.017c0-4.427-3.589-8.017-8.017-8.017H298.756
		c-4.427,0-8.017,3.589-8.017,8.017C290.739,132.16,294.328,135.749,298.756,135.749z"/>
	<path style="fill:#ABB0B7;" d="M298.756,169.954h162.472c4.427,0,8.017-3.589,8.017-8.017s-3.589-8.017-8.017-8.017H298.756
		c-4.427,0-8.017,3.589-8.017,8.017S294.328,169.954,298.756,169.954z"/>
	<path style="fill:#ABB0B7;" d="M461.228,273.637H350.063c-4.427,0-8.017,3.589-8.017,8.017c0,4.427,3.589,8.017,8.017,8.017
		h111.165c4.427,0,8.017-3.589,8.017-8.017C469.244,277.226,465.655,273.637,461.228,273.637z"/>
	<path style="fill:#ABB0B7;" d="M315.858,273.637h-17.102c-4.427,0-8.017,3.589-8.017,8.017c0,4.427,3.589,8.017,8.017,8.017h17.102
		c4.427,0,8.017-3.589,8.017-8.017C323.875,277.226,320.285,273.637,315.858,273.637z"/>
	<path style="fill:#ABB0B7;" d="M435.574,307.841h-85.511c-4.427,0-8.017,3.589-8.017,8.017c0,4.427,3.589,8.017,8.017,8.017h85.511
		c4.427,0,8.017-3.589,8.017-8.017C443.591,311.431,440.001,307.841,435.574,307.841z"/>
	<path style="fill:#ABB0B7;" d="M315.858,307.841h-17.102c-4.427,0-8.017,3.589-8.017,8.017c0,4.427,3.589,8.017,8.017,8.017h17.102
		c4.427,0,8.017-3.589,8.017-8.017C323.875,311.431,320.285,307.841,315.858,307.841z"/>
	<path style="fill:#ABB0B7;" d="M435.574,342.046h-85.511c-4.427,0-8.017,3.589-8.017,8.017c0,4.427,3.589,8.017,8.017,8.017h85.511
		c4.427,0,8.017-3.589,8.017-8.017C443.591,345.635,440.001,342.046,435.574,342.046z"/>
	<path style="fill:#ABB0B7;" d="M315.858,342.046h-17.102c-4.427,0-8.017,3.589-8.017,8.017c0,4.427,3.589,8.017,8.017,8.017h17.102
		c4.427,0,8.017-3.589,8.017-8.017C323.875,345.635,320.285,342.046,315.858,342.046z"/>
</g>
<g>
</g>
<g>
</g>
<g>
</g>
<g>
</g>
<g>
</g>
<g>
</g>
<g>
</g>
<g>
</g>
<g>
</g>
<g>
</g>
<g>
</g>
<g>
</g>
<g>
</g>
<g>
</g>
<g>
</g>
</svg>
