<?xml version="1.0" encoding="iso-8859-1"?>
<!-- Generator: Adobe Illustrator 18.0.0, SVG Export Plug-In . SVG Version: 6.00 Build 0)  -->
<!DOCTYPE svg PUBLIC "-//W3C//DTD SVG 1.1//EN" "http://www.w3.org/Graphics/SVG/1.1/DTD/svg11.dtd">
<svg xmlns="http://www.w3.org/2000/svg" xmlns:xlink="http://www.w3.org/1999/xlink" version="1.1" id="Capa_1" x="0px" y="0px" viewBox="0 0 478.307 478.307" style="enable-background:new 0 0 478.307 478.307;" xml:space="preserve" width="512px" height="512px">
<g id="XMLID_91_">
	<path id="XMLID_95_" d="M126.581,93.284c25.745,0,46.63-20.876,46.63-46.637C173.211,20.876,152.326,0,126.581,0   c-25.778,0-46.663,20.876-46.663,46.647C79.918,72.408,100.802,93.284,126.581,93.284z" fill="#165dba"/>
	<path id="XMLID_94_" d="M376.067,102.27h-17.159c-22.179,0-40.163,17.986-40.163,40.163v16.551l18.655-19.824l-19.185,39.26   l-66.55,25.941c-10.27,3.998-15.335,15.561-11.346,25.831c3.087,7.888,10.613,12.71,18.593,12.71c2.416,0,4.862-0.443,7.247-1.371   l73.81-28.77c4.66-1.814,8.48-5.329,10.677-9.826l22.614-46.288l-8.276,53.294c-1.075,6.95-5.782,12.436-11.892,14.837   l-7.325,2.853l-27.009,10.528l0.016,216.211c0,13.224,10.723,23.939,23.939,23.939c5.454,0,10.441-1.9,14.463-4.987   c-3.07-5.657-4.987-12.047-4.987-18.951V311.709h15.96v142.659c0,13.224,10.721,23.939,23.939,23.939   c13.216,0,23.938-10.715,23.938-23.939l0.203-311.935C416.23,120.256,398.244,102.27,376.067,102.27z" fill="#165dba"/>
	<path id="XMLID_93_" d="M367.479,93.284c25.777,0,46.661-20.876,46.661-46.637C414.14,20.876,393.256,0,367.479,0   c-25.747,0-46.631,20.876-46.631,46.647C320.848,72.408,341.732,93.284,367.479,93.284z" fill="#165dba"/>
	<path id="XMLID_92_" d="M175.845,178.419l-17.659-36.135l17.129,17.472v-17.331c0-22.178-17.985-40.163-40.162-40.163h-17.159   c-22.179,0-40.163,17.985-40.163,40.163v141.021L62.182,452.147c-1.231,13.17,8.447,24.828,21.617,26.052   c0.748,0.07,1.495,0.101,2.243,0.101c12.219,0,22.661-9.313,23.799-21.726l13.435-144.87h11.393l41.488,149.079   c2.945,10.589,12.577,17.524,23.05,17.524c2.119,0,4.286-0.289,6.438-0.881c12.732-3.544,20.182-16.746,16.644-29.486   l-46.973-168.81v-40.966l-27.025-10.534l-7.652-2.984c-6.452-2.511-10.69-8.299-11.563-14.705l-6.749-50.153l21.087,43.147   c2.197,4.497,6.017,8.012,10.677,9.826l73.811,28.77c0.141,0.055,0.281,0.03,0.421,0.078c-1.075-1.777-2.089-3.616-2.867-5.627   c-4.911-12.6-2.089-26.183,5.984-35.892L175.845,178.419z" fill="#165dba"/>
</g>
<g>
</g>
<g>
</g>
<g>
</g>
<g>
</g>
<g>
</g>
<g>
</g>
<g>
</g>
<g>
</g>
<g>
</g>
<g>
</g>
<g>
</g>
<g>
</g>
<g>
</g>
<g>
</g>
<g>
</g>
</svg>
