<?xml version="1.0" encoding="iso-8859-1"?>
<!-- Generator: Adobe Illustrator 19.0.0, SVG Export Plug-In . SVG Version: 6.00 Build 0)  -->
<svg version="1.1" id="Capa_1" xmlns="http://www.w3.org/2000/svg" xmlns:xlink="http://www.w3.org/1999/xlink" x="0px" y="0px"
	 viewBox="0 0 512 512" style="enable-background:new 0 0 512 512;" xml:space="preserve">
<path style="fill:#FFF5CB;" d="M186.935,389.885h-15.014c-30.356,0-55.052-24.696-55.052-55.052V299.8h70.066V389.885z"/>
<g>
	<path style="fill:#FF4F19;" d="M186.935,329.828h-80.076V206.712c0-30.356,24.696-55.052,55.052-55.052h25.024V329.828z"/>
	<polygon style="fill:#FF4F19;" points="156.907,340.839 156.907,512 245.105,512 250.995,468.28 256.887,512 345.084,512 
		345.084,340.839 	"/>
</g>
<g>
	<polygon style="fill:#E70020;" points="250.995,340.839 250.995,468.28 256.887,512 345.084,512 345.084,340.839 	"/>
	<path style="fill:#E70020;" d="M395.131,329.828h-80.076V151.66h25.024c30.356,0,55.052,24.696,55.052,55.052V329.828z"/>
</g>
<path style="fill:#FFD400;" d="M345.084,370.867H156.907V151.66h188.178V370.867z"/>
<rect x="250.997" y="151.663" style="fill:#FF8900;" width="94.089" height="219.207"/>
<path style="fill:#FFF5CB;" d="M250.995,198.704c-41.394,0-75.071-33.677-75.071-75.071s33.677-75.071,75.071-75.071
	s75.071,33.677,75.071,75.071S292.389,198.704,250.995,198.704z"/>
<path style="fill:#FFDBA9;" d="M250.995,48.563v150.142c41.394,0,75.071-33.677,75.071-75.071S292.389,48.563,250.995,48.563z"/>
<path style="fill:#8B8992;" d="M250.995,114.711c-22.309,0-44.617-5.259-64.953-15.778l-8.116-4.198V58.572h146.138v36.163
	l-8.116,4.198C295.612,109.451,273.304,114.711,250.995,114.711z"/>
<path style="fill:#57555C;" d="M250.995,58.572v56.139c22.309,0,44.617-5.259,64.953-15.778l8.116-4.198V58.572H250.995z"/>
<polygon style="fill:#FF4F19;" points="323.275,78.591 337.217,22.824 250.995,0 164.774,22.824 178.716,78.591 "/>
<polygon style="fill:#E70020;" points="337.217,22.824 250.995,0 250.995,78.591 323.275,78.591 "/>
<polygon style="fill:#00A6FF;" points="156.907,173.071 284.621,322.562 307.456,303.061 178.109,151.66 156.907,151.66 "/>
<g>
	<circle style="fill:#8B8992;" cx="250.997" cy="309.812" r="15.014"/>
	<circle style="fill:#8B8992;" cx="250.997" cy="219.727" r="15.014"/>
</g>
<g>
	<path style="fill:#57555C;" d="M250.995,204.71v30.028c8.292,0,15.014-6.722,15.014-15.014
		C266.009,211.432,259.288,204.71,250.995,204.71z"/>
	<path style="fill:#57555C;" d="M250.995,294.795v30.028c8.292,0,15.014-6.722,15.014-15.014S259.288,294.795,250.995,294.795z"/>
</g>
<polygon style="fill:#006EF5;" points="250.995,283.203 284.621,322.562 307.456,303.061 250.995,236.975 "/>
<path style="fill:#57555C;" d="M370.108,429.923h-54.051c-19.317,0-35.033-15.716-35.033-35.033V299.8h124.117v95.09
	C405.141,414.206,389.425,429.923,370.108,429.923z"/>
<g>
</g>
<g>
</g>
<g>
</g>
<g>
</g>
<g>
</g>
<g>
</g>
<g>
</g>
<g>
</g>
<g>
</g>
<g>
</g>
<g>
</g>
<g>
</g>
<g>
</g>
<g>
</g>
<g>
</g>
</svg>
