<?xml version="1.0" encoding="UTF-8" standalone="no"?>
<!-- Generator: Adobe Illustrator 19.0.0, SVG Export Plug-In . SVG Version: 6.00 Build 0)  -->

<svg
   xmlns:dc="http://purl.org/dc/elements/1.1/"
   xmlns:cc="http://creativecommons.org/ns#"
   xmlns:rdf="http://www.w3.org/1999/02/22-rdf-syntax-ns#"
   xmlns:svg="http://www.w3.org/2000/svg"
   xmlns="http://www.w3.org/2000/svg"
   xmlns:sodipodi="http://sodipodi.sourceforge.net/DTD/sodipodi-0.dtd"
   xmlns:inkscape="http://www.inkscape.org/namespaces/inkscape"
   version="1.1"
   id="Layer_1"
   x="0px"
   y="0px"
   viewBox="0 0 110 109.99867"
   xml:space="preserve"
   sodipodi:docname="question.svg"
   width="110"
   height="109.99867"
   inkscape:version="0.92.2 (5c3e80d, 2017-08-06)"><metadata
     id="metadata41"><rdf:RDF><cc:Work
         rdf:about=""><dc:format>image/svg+xml</dc:format><dc:type
           rdf:resource="http://purl.org/dc/dcmitype/StillImage" /><dc:title></dc:title></cc:Work></rdf:RDF></metadata><defs
     id="defs39" /><sodipodi:namedview
     pagecolor="#ffffff"
     bordercolor="#666666"
     borderopacity="1"
     objecttolerance="10"
     gridtolerance="10"
     guidetolerance="10"
     inkscape:pageopacity="0"
     inkscape:pageshadow="2"
     inkscape:window-width="2498"
     inkscape:window-height="1057"
     id="namedview37"
     showgrid="false"
     fit-margin-top="0"
     fit-margin-left="0"
     fit-margin-right="0"
     fit-margin-bottom="0"
     inkscape:zoom="0.47565494"
     inkscape:cx="248.07899"
     inkscape:cy="248.07601"
     inkscape:window-x="54"
     inkscape:window-y="-8"
     inkscape:window-maximized="1"
     inkscape:current-layer="Layer_1" /><path
     style="fill:#25b7d3;stroke-width:0.22170357"
     d="M 110,55.00067 C 110,24.6224 85.375606,0 55.000887,0 24.624616,0 0,24.6224 0,55.00067 c 0,30.37361 24.624616,54.998 55.000887,54.998 C 85.375606,109.99867 110,85.37428 110,55.00067 Z"
     id="path2"
     inkscape:connector-curvature="0" /><path
     style="fill:#ffffff;stroke-width:0.22170357"
     d="m 30.642981,38.4853 c 0,-3.085 0.99035,-6.21102 2.971493,-9.37739 1.980478,-3.16638 4.871492,-5.78868 8.671048,-7.86738 3.799777,-2.07803 8.23274,-3.11759 13.298889,-3.11759 4.70854,0 8.865925,0.8693 12.470825,2.60612 3.6049,1.73771 6.389054,4.10041 8.354456,7.08787 1.964515,2.98834 2.947106,6.23541 2.947106,9.74276 0,2.76065 -0.560245,5.18055 -1.680735,7.25835 -1.12049,2.07869 -2.452485,3.87294 -3.994655,5.38274 -1.542835,1.51025 -4.311248,4.05164 -8.305681,7.62395 -1.104305,1.00697 -1.989789,1.89224 -2.6549,2.65512 -0.665998,0.76332 -1.161505,1.46147 -1.485857,2.09443 -0.325018,0.63341 -0.577095,1.26659 -0.755123,1.9 -0.178915,0.63296 -0.446733,1.74592 -0.803675,3.33686 -0.617223,3.37788 -2.549813,5.06637 -5.796884,5.06637 -1.688937,0 -3.110057,-0.55182 -4.262472,-1.65635 -1.153081,-1.10386 -1.729288,-2.74402 -1.729288,-4.92004 0,-2.72806 0.42168,-5.09076 1.266592,-7.08787 0.844247,-1.99754 1.964516,-3.75122 3.361248,-5.26102 1.395846,-1.51025 3.279883,-3.30427 5.650781,-5.38296 2.078027,-1.81842 3.580512,-3.19076 4.506125,-4.11637 0.925612,-0.92562 1.7049,-1.95609 2.338307,-3.09343 0.633186,-1.13646 0.95,-2.37024 0.95,-3.70223 0,-2.59792 -0.966627,-4.78991 -2.898552,-6.57639 -1.93259,-1.78561 -4.425425,-2.67929 -7.477618,-2.67929 -3.572975,0 -6.203488,0.90122 -7.891761,2.70367 -1.688937,1.80245 -3.117595,4.45735 -4.28686,7.9647 -1.104305,3.67031 -3.199182,5.50468 -6.284188,5.50468 -1.819299,0 -3.35371,-0.64094 -4.603453,-1.92416 -1.250186,-1.28278 -1.875168,-2.67109 -1.875168,-4.16515 z m 23.772387,53.39066 c -1.981365,0 -3.710653,-0.64184 -5.188086,-1.92439 -1.478097,-1.28234 -2.216592,-3.07658 -2.216592,-5.38274 0,-2.04611 0.713886,-3.76697 2.14343,-5.1637 1.428658,-1.39607 3.182333,-2.09466 5.261026,-2.09466 2.046102,0 3.766965,0.69859 5.163698,2.09466 1.395846,1.39673 2.094655,3.11759 2.094655,5.1637 0,2.27357 -0.730735,4.05983 -2.192205,5.35857 -1.46147,1.29874 -3.149964,1.94856 -5.065926,1.94856 z"
     id="path4"
     inkscape:connector-curvature="0" /><g
     id="g6"
     transform="translate(0,-386.15633)" /><g
     id="g8"
     transform="translate(0,-386.15633)" /><g
     id="g10"
     transform="translate(0,-386.15633)" /><g
     id="g12"
     transform="translate(0,-386.15633)" /><g
     id="g14"
     transform="translate(0,-386.15633)" /><g
     id="g16"
     transform="translate(0,-386.15633)" /><g
     id="g18"
     transform="translate(0,-386.15633)" /><g
     id="g20"
     transform="translate(0,-386.15633)" /><g
     id="g22"
     transform="translate(0,-386.15633)" /><g
     id="g24"
     transform="translate(0,-386.15633)" /><g
     id="g26"
     transform="translate(0,-386.15633)" /><g
     id="g28"
     transform="translate(0,-386.15633)" /><g
     id="g30"
     transform="translate(0,-386.15633)" /><g
     id="g32"
     transform="translate(0,-386.15633)" /><g
     id="g34"
     transform="translate(0,-386.15633)" /></svg>