<?xml version="1.0" encoding="utf-8"?>
<!-- Generator: Adobe Illustrator 18.1.1, SVG Export Plug-In . SVG Version: 6.00 Build 0)  -->
<svg version="1.1" id="Capa_1" xmlns="http://www.w3.org/2000/svg" xmlns:xlink="http://www.w3.org/1999/xlink" x="0px" y="0px"
	 viewBox="0 0 500 500" enable-background="new 0 0 500 500" xml:space="preserve">
<g>
	<g>
		<path fill="#B7B7B7" d="M357.8,187.2c-6.2-6.2-13.6-9.2-22.3-9.2h-27.6l-6.3-16.8c-1.6-4-4.4-7.5-8.6-10.4
			c-4.2-2.9-8.4-4.4-12.8-4.4h-63.1c-4.4,0-8.6,1.5-12.8,4.4c-4.2,2.9-7,6.4-8.6,10.4l-6.3,16.8h-27.6c-8.7,0-16.2,3.1-22.3,9.2
			c-6.2,6.2-9.2,13.6-9.2,22.3v110.5c0,8.7,3.1,16.2,9.2,22.3c6.2,6.2,13.6,9.2,22.3,9.2h173.6c8.7,0,16.1-3.1,22.3-9.2
			c6.2-6.2,9.2-13.6,9.2-22.3V209.5C367,200.8,363.9,193.3,357.8,187.2z M287.7,303.7c-10.8,10.8-23.8,16.2-39,16.2
			s-28.2-5.4-39-16.2c-10.8-10.8-16.2-23.8-16.2-39c0-15.2,5.4-28.2,16.2-39c10.8-10.8,23.8-16.2,39-16.2s28.2,5.4,39,16.2
			c10.8,10.8,16.2,23.8,16.2,39C303.9,279.9,298.5,292.9,287.7,303.7z"/>
		<path fill="#B7B7B7" d="M248.7,229.2c-9.8,0-18.1,3.5-25.1,10.4c-6.9,6.9-10.4,15.3-10.4,25.1c0,9.8,3.5,18.1,10.4,25.1
			c6.9,6.9,15.3,10.4,25.1,10.4c9.8,0,18.1-3.5,25.1-10.4c6.9-6.9,10.4-15.3,10.4-25.1c0-9.8-3.5-18.1-10.4-25.1
			C266.8,232.7,258.4,229.2,248.7,229.2z"/>
	</g>
</g>
<path fill="#9B9B9B" d="M416.9,80.7C372,35.7,312.2,10.9,248.7,10.9c-63.6,0-123.3,24.8-168.3,69.7S10.7,185.4,10.7,248.9
	c0,63.6,24.8,123.3,69.7,168.3c44.9,44.9,104.7,69.7,168.3,69.7c63.6,0,123.3-24.8,168.3-69.7c44.9-44.9,69.7-104.7,69.7-168.3
	C486.6,185.4,461.9,125.6,416.9,80.7z M91,406.6c-42.1-42.1-65.3-98.1-65.3-157.7c0-57.1,21.3-110.8,60.1-152.3l315.1,315.1
	c-41.4,38.8-95.2,60.1-152.3,60.1C189.1,471.9,133.1,448.7,91,406.6z M411.5,401.2L96.4,86.1c41.4-38.8,95.2-60.1,152.3-60.1
	c59.6,0,115.6,23.2,157.7,65.3c42.1,42.1,65.3,98.1,65.3,157.7C471.6,306,450.3,359.7,411.5,401.2z"/>
</svg>
