<?xml version="1.0" encoding="utf-8"?>
<!-- Generator: Adobe Illustrator 22.0.1, SVG Export Plug-In . SVG Version: 6.00 Build 0)  -->
<svg version="1.1" id="Capa_1" xmlns="http://www.w3.org/2000/svg" xmlns:xlink="http://www.w3.org/1999/xlink" x="0px" y="0px"
	 viewBox="0 0 546.7 246" style="enable-background:new 0 0 546.7 246;" xml:space="preserve">
<style type="text/css">
	.st0{fill:#00B2E3;}
	.st1{fill:url(#SVGID_1_);}
	.st2{fill:#0047BA;}
	.st3{fill:#6FCFEB;}
</style>
<g>
	<g>
		<path d="M175.5,138.6h43.9v10.9h-33v19h27.2v10.8h-27.2v11.9h33V202h-43.9V138.6z"/>
		<path d="M226.4,138.6h19.9c3.3,0.1,6.2,0.5,8.9,1.4c2.7,0.9,5,2.2,6.8,3.9c1.9,1.7,3.3,3.8,4.4,6.3c1,2.5,1.5,5.4,1.5,8.7
			c0,3.3-0.6,6.4-1.9,9.2c-1.2,2.8-3,4.9-5.4,6.2c0.7,0.3,1.5,0.7,2.4,1.2c0.9,0.5,1.7,1.3,2.4,2.2c0.7,1,1.3,2.3,1.8,3.9
			c0.5,1.6,0.6,3.6,0.6,6.1V202H257v-14.4c0-1.6-0.3-3-0.9-4c-0.6-1.1-1.3-1.9-2.2-2.5s-1.9-1.1-3.1-1.4s-2.4-0.4-3.6-0.4h-10V202
			h-10.9V138.6z M257.4,158.7c0-3.4-1.1-5.9-3.2-7.4c-2.1-1.6-4.7-2.4-7.8-2.4h-9.2v19.9h9.2c3.5-0.1,6.2-0.9,8.1-2.4
			C256.5,164.7,257.4,162.2,257.4,158.7z"/>
		<path d="M270,149.4v-10.9h44v10.9h-16.6V202h-10.8v-52.6H270z"/>
		<path d="M320.4,138.6h10.9V202h-10.9V138.6z"/>
		<path d="M338.5,138.6h19.9c6.8,0.1,12.1,1.9,15.9,5.3c3.8,3.4,5.8,8.5,5.8,15.2c0,3.6-0.5,6.6-1.5,9.2c-1,2.5-2.5,4.6-4.4,6.3
			c-1.9,1.6-4.2,2.8-6.8,3.6c-2.7,0.8-5.6,1.2-8.9,1.2h-9.1V202h-10.9V138.6z M369.6,159.1c0-3.6-1-6.1-3-7.6c-2-1.5-4.7-2.2-8-2.2
			h-9.2v19.5h9.2c3.6,0,6.3-0.7,8.2-2.1C368.6,165.2,369.6,162.7,369.6,159.1z"/>
		<path d="M384.8,170.3c0-4.6,0.9-8.9,2.7-13.1c1.8-4.1,4.2-7.7,7.3-10.7c3.1-3.1,6.7-5.5,10.7-7.3c4.1-1.8,8.4-2.7,13-2.7
			c4.6,0,8.9,0.9,13.1,2.7c4.1,1.8,7.7,4.2,10.7,7.3c3.1,3.1,5.5,6.6,7.3,10.7c1.8,4.1,2.7,8.5,2.7,13.1c0,4.7-0.9,9-2.7,13.1
			c-1.8,4.1-4.2,7.6-7.3,10.7c-3.1,3.1-6.6,5.5-10.7,7.3c-4.1,1.8-8.5,2.7-13.1,2.7c-4.6,0-8.9-0.9-13-2.7
			c-4.1-1.8-7.7-4.2-10.7-7.3c-3.1-3.1-5.5-6.6-7.3-10.7C385.7,179.3,384.8,175,384.8,170.3z M395.7,170.3c0,3.1,0.6,6.1,1.8,8.8
			c1.2,2.8,2.9,5.2,4.9,7.3c2.1,2.1,4.5,3.7,7.3,4.9c2.8,1.2,5.7,1.8,8.8,1.8c3.1,0,6-0.6,8.8-1.8c2.8-1.2,5.2-2.9,7.3-4.9
			c2.1-2.1,3.7-4.5,4.9-7.3c1.2-2.8,1.8-5.7,1.8-8.8c0-3.1-0.6-6-1.8-8.8c-1.2-2.8-2.9-5.2-4.9-7.3c-2.1-2.1-4.5-3.7-7.3-4.9
			c-2.8-1.2-5.7-1.8-8.8-1.8c-3.1,0-6.1,0.6-8.8,1.8c-2.8,1.2-5.2,2.8-7.3,4.9c-2.1,2.1-3.7,4.5-4.9,7.3
			C396.3,164.3,395.7,167.2,395.7,170.3z"/>
		<path d="M502.1,191.2V202h-43.9v-63.5h10.9v52.6H502.1z"/>
		<path d="M507.7,138.6h10.9V202h-10.9V138.6z"/>
	</g>
</g>
<g>
	<g>
		<path d="M180.7,216.6h1.5v15.1h-1.5V216.6z"/>
		<path d="M183.6,226.3c0-0.8,0.2-1.6,0.5-2.3c0.3-0.7,0.7-1.3,1.3-1.9c0.5-0.5,1.2-1,1.9-1.3c0.7-0.3,1.5-0.5,2.3-0.5
			s1.6,0.2,2.3,0.5s1.4,0.7,1.9,1.3c0.5,0.5,1,1.2,1.3,1.9c0.3,0.7,0.5,1.5,0.5,2.3v5.4H194v-1.4c-0.1,0.1-0.2,0.2-0.2,0.2
			c-0.5,0.5-1.2,1-1.9,1.3s-1.5,0.5-2.3,0.5s-1.6-0.2-2.3-0.5c-0.7-0.3-1.3-0.7-1.9-1.3c-0.5-0.5-1-1.2-1.3-1.9
			S183.6,227.2,183.6,226.3z M185.2,226.3c0,0.6,0.1,1.2,0.3,1.7c0.2,0.5,0.5,1,1,1.4c0.4,0.4,0.9,0.7,1.4,1
			c0.5,0.2,1.1,0.3,1.7,0.3c0.6,0,1.2-0.1,1.7-0.3s1-0.5,1.4-1c0.4-0.4,0.7-0.9,1-1.4c0.2-0.5,0.3-1,0.3-1.5v-0.2
			c0-0.6-0.1-1.2-0.3-1.7c-0.2-0.5-0.5-1-1-1.4c-0.4-0.4-0.9-0.7-1.4-1s-1.1-0.3-1.7-0.3c-0.6,0-1.2,0.1-1.7,0.3
			c-0.5,0.2-1,0.5-1.4,1c-0.4,0.4-0.7,0.9-1,1.4C185.3,225.2,185.2,225.7,185.2,226.3z"/>
		<path d="M203.1,229c0-0.5-0.1-0.9-0.3-1.1s-0.5-0.5-0.9-0.7c-0.4-0.2-0.8-0.3-1.4-0.5c-0.6-0.1-1.1-0.3-1.6-0.5s-0.9-0.5-1.2-0.9
			c-0.3-0.4-0.6-0.9-0.6-1.5c-0.1-0.5,0-0.9,0.2-1.3c0.2-0.4,0.5-0.8,0.8-1.1c0.3-0.3,0.7-0.6,1.2-0.8s1-0.3,1.5-0.3
			c0.6,0,1.1,0.1,1.5,0.3c0.4,0.2,0.8,0.4,1.1,0.7s0.5,0.6,0.7,0.9s0.3,0.6,0.3,0.8h-1.6c-0.1-0.4-0.4-0.7-0.7-1
			c-0.4-0.2-0.8-0.3-1.2-0.3c-0.3,0-0.6,0.1-0.9,0.2c-0.3,0.1-0.6,0.3-0.9,0.7c-0.3,0.3-0.4,0.7-0.3,1.1c0.1,0.3,0.2,0.6,0.5,0.8
			c0.3,0.2,0.6,0.4,1.1,0.5c0.4,0.2,0.9,0.3,1.5,0.5c0.5,0.2,1,0.4,1.5,0.7c0.5,0.3,0.8,0.7,1.1,1.1c0.3,0.4,0.4,1,0.4,1.7
			c0,0.5-0.1,1-0.3,1.4s-0.5,0.7-0.8,1c-0.4,0.3-0.8,0.5-1.2,0.6c-0.5,0.1-1,0.2-1.5,0.2s-1-0.1-1.5-0.3s-0.9-0.4-1.3-0.8
			c-0.4-0.3-0.7-0.7-0.9-1.2c-0.2-0.5-0.3-1-0.3-1.6h1.5c0,0.4,0.1,0.7,0.2,1c0.2,0.3,0.4,0.6,0.8,0.9c0.4,0.3,0.9,0.4,1.5,0.4
			c0.7,0,1.2-0.2,1.6-0.5C202.8,229.9,203,229.5,203.1,229z"/>
		<path d="M214.5,226.3c0,0.6,0.1,1.2,0.3,1.7c0.2,0.5,0.5,1,1,1.4c0.4,0.4,0.9,0.7,1.4,1c0.5,0.2,1.1,0.3,1.7,0.3
			c0.6,0,1.2-0.1,1.7-0.3s1-0.5,1.4-1c0.3-0.3,0.5-0.6,0.7-1h1.7l-0.1,0.2c-0.3,0.7-0.7,1.3-1.3,1.9c-0.5,0.5-1.2,1-1.9,1.3
			s-1.5,0.5-2.3,0.5s-1.6-0.2-2.3-0.5c-0.7-0.3-1.3-0.7-1.9-1.3c-0.5-0.5-1-1.2-1.3-1.9s-0.5-1.5-0.5-2.3c0-0.8,0.2-1.6,0.5-2.3
			c0.3-0.7,0.7-1.3,1.3-1.9c0.5-0.5,1.2-1,1.9-1.3c0.7-0.3,1.5-0.5,2.3-0.5s1.6,0.2,2.3,0.5s1.4,0.7,1.9,1.3c0.5,0.5,1,1.2,1.3,1.9
			l0.1,0.2h-1.7c-0.2-0.4-0.4-0.7-0.7-1c-0.4-0.4-0.9-0.7-1.4-1s-1.1-0.3-1.7-0.3c-0.6,0-1.2,0.1-1.7,0.3c-0.5,0.2-1,0.5-1.4,1
			c-0.4,0.4-0.7,0.9-1,1.4C214.6,225.2,214.5,225.7,214.5,226.3z"/>
		<path d="M225.5,226.3c0-0.8,0.2-1.6,0.5-2.3c0.3-0.7,0.7-1.3,1.3-1.9c0.5-0.5,1.2-1,1.9-1.3c0.7-0.3,1.5-0.5,2.3-0.5
			s1.6,0.2,2.3,0.5s1.4,0.7,1.9,1.3c0.5,0.5,1,1.2,1.3,1.9c0.3,0.7,0.5,1.5,0.5,2.3c0,0.8-0.2,1.6-0.5,2.3c-0.3,0.7-0.7,1.3-1.3,1.9
			c-0.5,0.5-1.2,1-1.9,1.3s-1.5,0.5-2.3,0.5s-1.6-0.2-2.3-0.5c-0.7-0.3-1.3-0.7-1.9-1.3c-0.5-0.5-1-1.2-1.3-1.9
			S225.5,227.2,225.5,226.3z M227,226.3c0,0.6,0.1,1.2,0.3,1.7c0.2,0.5,0.5,1,1,1.4c0.4,0.4,0.9,0.7,1.4,1c0.5,0.2,1.1,0.3,1.7,0.3
			c0.6,0,1.2-0.1,1.7-0.3s1-0.5,1.4-1c0.4-0.4,0.7-0.9,1-1.4c0.2-0.5,0.3-1.1,0.3-1.7c0-0.6-0.1-1.2-0.3-1.7c-0.2-0.5-0.5-1-1-1.4
			c-0.4-0.4-0.9-0.7-1.4-1s-1.1-0.3-1.7-0.3c-0.6,0-1.2,0.1-1.7,0.3c-0.5,0.2-1,0.5-1.4,1c-0.4,0.4-0.7,0.9-1,1.4
			C227.1,225.2,227,225.7,227,226.3z"/>
		<path d="M238.8,221h1.6v1c0.3-0.5,0.8-0.8,1.4-1.1c0.6-0.3,1.2-0.4,1.9-0.4c0.8,0,1.6,0.2,2.3,0.6c0.7,0.4,1.2,1,1.7,1.6
			c0.4-0.7,1-1.2,1.8-1.6c0.7-0.4,1.5-0.6,2.4-0.6c0.7,0,1.3,0.1,1.9,0.4s1.1,0.6,1.5,1c0.4,0.4,0.8,1,1,1.6
			c0.3,0.6,0.4,1.2,0.4,1.9l0,6.5h-1.6l0-6.5c0-0.5-0.1-0.9-0.3-1.3c-0.2-0.4-0.4-0.8-0.7-1.1c-0.3-0.3-0.6-0.5-1-0.7
			s-0.8-0.3-1.3-0.3s-0.9,0.1-1.3,0.3c-0.4,0.2-0.7,0.4-1,0.7s-0.5,0.7-0.7,1.1c-0.2,0.4-0.3,0.8-0.3,1.3l0,6.5H247l0-6.5
			c0-0.5-0.1-0.9-0.3-1.3c-0.2-0.4-0.4-0.8-0.7-1.1c-0.3-0.3-0.6-0.5-1-0.7c-0.4-0.2-0.8-0.2-1.3-0.2s-0.9,0.1-1.3,0.3
			c-0.4,0.2-0.7,0.4-1,0.7c-0.3,0.3-0.5,0.7-0.7,1.1c-0.2,0.4-0.3,0.8-0.3,1.2l0,6.5h-1.6L238.8,221z"/>
		<path d="M258.2,226.4c0-0.8,0.2-1.6,0.5-2.3s0.7-1.4,1.3-1.9c0.5-0.5,1.2-1,1.9-1.3c0.7-0.3,1.5-0.5,2.3-0.5
			c0.8,0,1.6,0.2,2.3,0.5c0.7,0.3,1.3,0.7,1.9,1.3c0.5,0.5,1,1.2,1.3,1.9c0.3,0.7,0.5,1.5,0.5,2.3s-0.2,1.6-0.5,2.3
			c-0.3,0.7-0.7,1.3-1.3,1.9s-1.2,1-1.9,1.3c-0.7,0.3-1.5,0.5-2.3,0.5c-0.8,0-1.7-0.2-2.5-0.7c-0.9-0.4-1.5-1-1.9-1.6v6h-1.5V226.4z
			 M259.7,226.4c0,0.6,0.1,1.2,0.3,1.7c0.2,0.5,0.5,1,1,1.4c0.4,0.4,0.9,0.7,1.4,1c0.5,0.2,1.1,0.3,1.7,0.3c0.6,0,1.2-0.1,1.7-0.3
			s1-0.5,1.4-1c0.4-0.4,0.7-0.9,1-1.4c0.2-0.5,0.3-1.1,0.3-1.7s-0.1-1.2-0.3-1.7c-0.2-0.5-0.5-1-1-1.4c-0.4-0.4-0.9-0.7-1.4-1
			c-0.5-0.2-1.1-0.3-1.7-0.3c-0.6,0-1.2,0.1-1.7,0.3c-0.5,0.2-1,0.5-1.4,1c-0.4,0.4-0.7,0.9-1,1.4
			C259.8,225.2,259.7,225.8,259.7,226.4z"/>
		<path d="M271.7,221h1.5v2.1c0.1-0.1,0.2-0.3,0.2-0.3c0.5-0.5,1.2-1,1.9-1.3c0.7-0.3,1.5-0.5,2.3-0.5v1.5c-0.6,0-1.2,0.1-1.7,0.3
			c-0.5,0.2-1,0.5-1.4,1c-0.4,0.4-0.7,0.9-1,1.4c-0.2,0.5-0.3,1.1-0.3,1.7v4.9h-1.5L271.7,221z"/>
		<path d="M277.3,226.3c0-0.8,0.2-1.6,0.5-2.3c0.3-0.7,0.7-1.3,1.3-1.9c0.5-0.5,1.2-1,1.9-1.3s1.5-0.5,2.3-0.5
			c0.8,0,1.6,0.2,2.3,0.5c0.7,0.3,1.3,0.7,1.9,1.3c0.5,0.5,1,1.2,1.3,1.9c0.3,0.7,0.5,1.5,0.5,2.3v5.4h-1.5v-1.4
			c-0.1,0.1-0.2,0.2-0.2,0.2c-0.5,0.5-1.2,1-1.9,1.3c-0.7,0.3-1.5,0.5-2.3,0.5c-0.8,0-1.6-0.2-2.3-0.5s-1.3-0.7-1.9-1.3
			c-0.5-0.5-1-1.2-1.3-1.9S277.3,227.2,277.3,226.3z M278.9,226.3c0,0.6,0.1,1.2,0.3,1.7c0.2,0.5,0.5,1,1,1.4c0.4,0.4,0.9,0.7,1.4,1
			c0.5,0.2,1.1,0.3,1.7,0.3c0.6,0,1.2-0.1,1.7-0.3c0.5-0.2,1-0.5,1.4-1s0.7-0.9,1-1.4c0.2-0.5,0.3-1,0.3-1.5v-0.2
			c0-0.6-0.1-1.2-0.3-1.7c-0.2-0.5-0.5-1-1-1.4c-0.4-0.4-0.9-0.7-1.4-1c-0.5-0.2-1.1-0.3-1.7-0.3c-0.6,0-1.2,0.1-1.7,0.3
			c-0.5,0.2-1,0.5-1.4,1c-0.4,0.4-0.7,0.9-1,1.4C279,225.2,278.9,225.7,278.9,226.3z"/>
		<path d="M296.8,229c0-0.5-0.1-0.9-0.3-1.1s-0.5-0.5-0.9-0.7c-0.4-0.2-0.8-0.3-1.4-0.5c-0.6-0.1-1.1-0.3-1.6-0.5
			c-0.5-0.2-0.9-0.5-1.2-0.9c-0.3-0.4-0.6-0.9-0.6-1.5c-0.1-0.5,0-0.9,0.2-1.3c0.2-0.4,0.4-0.8,0.8-1.1c0.3-0.3,0.7-0.6,1.2-0.8
			c0.5-0.2,1-0.3,1.5-0.3c0.6,0,1.1,0.1,1.5,0.3c0.4,0.2,0.8,0.4,1.1,0.7c0.3,0.3,0.5,0.6,0.7,0.9c0.2,0.3,0.3,0.6,0.3,0.8h-1.6
			c-0.1-0.4-0.4-0.7-0.7-1c-0.4-0.2-0.8-0.3-1.2-0.3c-0.3,0-0.6,0.1-0.9,0.2c-0.3,0.1-0.6,0.3-0.9,0.7c-0.3,0.3-0.4,0.7-0.3,1.1
			c0.1,0.3,0.2,0.6,0.5,0.8s0.6,0.4,1.1,0.5c0.4,0.2,0.9,0.3,1.5,0.5c0.5,0.2,1,0.4,1.5,0.7c0.5,0.3,0.8,0.7,1.1,1.1
			c0.3,0.4,0.4,1,0.4,1.7c0,0.5-0.1,1-0.3,1.4c-0.2,0.4-0.5,0.7-0.8,1c-0.4,0.3-0.8,0.5-1.2,0.6c-0.5,0.1-1,0.2-1.5,0.2
			s-1-0.1-1.5-0.3s-0.9-0.4-1.3-0.8c-0.4-0.3-0.7-0.7-0.9-1.2c-0.2-0.5-0.3-1-0.3-1.6h1.5c0,0.4,0.1,0.7,0.2,1
			c0.2,0.3,0.4,0.6,0.8,0.9c0.4,0.3,0.9,0.4,1.5,0.4c0.7,0,1.2-0.2,1.6-0.5C296.5,229.9,296.7,229.5,296.8,229z"/>
		<path d="M318.7,236.1h-1.5v-6c-0.4,0.6-1,1.2-1.9,1.6c-0.9,0.4-1.7,0.7-2.5,0.7s-1.6-0.2-2.3-0.5c-0.7-0.3-1.3-0.7-1.9-1.3
			s-1-1.2-1.3-1.9s-0.5-1.5-0.5-2.3s0.2-1.6,0.5-2.3s0.7-1.4,1.3-1.9c0.5-0.5,1.2-1,1.9-1.3c0.7-0.3,1.5-0.5,2.3-0.5
			s1.6,0.2,2.3,0.5c0.7,0.3,1.3,0.7,1.9,1.3c0.5,0.5,1,1.2,1.3,1.9s0.5,1.5,0.5,2.3V236.1z M317.2,226.4c0-0.6-0.1-1.2-0.3-1.7
			s-0.5-1-1-1.4c-0.4-0.4-0.9-0.7-1.4-1c-0.5-0.2-1.1-0.3-1.7-0.3s-1.2,0.1-1.7,0.3c-0.5,0.2-1,0.5-1.4,1c-0.4,0.4-0.7,0.9-1,1.4
			s-0.3,1.1-0.3,1.7s0.1,1.2,0.3,1.7c0.2,0.5,0.5,1,1,1.4s0.9,0.7,1.4,1s1.1,0.3,1.7,0.3s1.2-0.1,1.7-0.3s1-0.5,1.4-1
			c0.4-0.4,0.7-0.9,1-1.4C317.1,227.5,317.2,227,317.2,226.4z"/>
		<path d="M327.9,226.9V221h1.5v5.9c0,0.7-0.1,1.3-0.4,1.9c-0.3,0.6-0.6,1.1-1,1.5c-0.4,0.4-1,0.8-1.5,1c-0.6,0.3-1.2,0.4-1.9,0.4
			c-0.7,0-1.3-0.1-1.9-0.4c-0.6-0.3-1.1-0.6-1.5-1c-0.4-0.4-0.8-1-1-1.5c-0.3-0.6-0.4-1.2-0.4-1.9v0l0-5.9h1.6l0,5.9v0
			c0,0.5,0.1,0.9,0.3,1.3c0.2,0.4,0.4,0.8,0.7,1c0.3,0.3,0.7,0.5,1,0.7c0.4,0.2,0.8,0.3,1.3,0.3c0.5,0,0.9-0.1,1.3-0.3
			c0.4-0.2,0.8-0.4,1.1-0.7s0.5-0.6,0.7-1C327.8,227.8,327.9,227.4,327.9,226.9z"/>
		<path d="M332.3,226.3c0,0.6,0.1,1.2,0.3,1.7c0.2,0.5,0.5,1,1,1.4c0.4,0.4,0.9,0.7,1.4,1c0.5,0.2,1.1,0.3,1.7,0.3
			c0.6,0,1.2-0.1,1.7-0.3c0.5-0.2,1-0.5,1.4-1c0.3-0.3,0.5-0.6,0.7-1h1.7l-0.1,0.2c-0.3,0.7-0.7,1.3-1.3,1.9c-0.5,0.5-1.2,1-1.9,1.3
			c-0.7,0.3-1.5,0.5-2.3,0.5c-0.8,0-1.6-0.2-2.3-0.5s-1.3-0.7-1.9-1.3c-0.5-0.5-1-1.2-1.3-1.9c-0.3-0.7-0.5-1.5-0.5-2.3
			c0-0.8,0.2-1.6,0.5-2.3c0.3-0.7,0.7-1.3,1.3-1.9c0.5-0.5,1.2-1,1.9-1.3s1.5-0.5,2.3-0.5c0.8,0,1.6,0.2,2.3,0.5
			c0.7,0.3,1.3,0.7,1.9,1.3c0.5,0.5,1,1.2,1.3,1.9c0.3,0.6,0.4,1.2,0.5,1.9h-10.3C332.3,226,332.3,226.2,332.3,226.3z M339.8,223.2
			c-0.4-0.4-0.9-0.7-1.4-1c-0.5-0.2-1.1-0.3-1.7-0.3c-0.6,0-1.2,0.1-1.7,0.3c-0.5,0.2-1,0.5-1.4,1c-0.3,0.3-0.6,0.7-0.8,1.2h7.9
			C340.4,223.9,340.2,223.6,339.8,223.2z"/>
		<path d="M362.9,236.1h-1.5v-6c-0.4,0.6-1,1.2-1.9,1.6c-0.9,0.4-1.7,0.7-2.5,0.7s-1.6-0.2-2.3-0.5c-0.7-0.3-1.3-0.7-1.9-1.3
			s-1-1.2-1.3-1.9s-0.5-1.5-0.5-2.3s0.2-1.6,0.5-2.3s0.7-1.4,1.3-1.9c0.5-0.5,1.2-1,1.9-1.3c0.7-0.3,1.5-0.5,2.3-0.5
			s1.6,0.2,2.3,0.5c0.7,0.3,1.3,0.7,1.9,1.3c0.5,0.5,1,1.2,1.3,1.9s0.5,1.5,0.5,2.3V236.1z M361.4,226.4c0-0.6-0.1-1.2-0.3-1.7
			s-0.5-1-1-1.4c-0.4-0.4-0.9-0.7-1.4-1c-0.5-0.2-1.1-0.3-1.7-0.3s-1.2,0.1-1.7,0.3c-0.5,0.2-1,0.5-1.4,1c-0.4,0.4-0.7,0.9-1,1.4
			s-0.3,1.1-0.3,1.7s0.1,1.2,0.3,1.7c0.2,0.5,0.5,1,1,1.4s0.9,0.7,1.4,1s1.1,0.3,1.7,0.3s1.2-0.1,1.7-0.3s1-0.5,1.4-1
			c0.4-0.4,0.7-0.9,1-1.4C361.2,227.5,361.4,227,361.4,226.4z"/>
		<path d="M372.1,226.9V221h1.5v5.9c0,0.7-0.1,1.3-0.4,1.9c-0.3,0.6-0.6,1.1-1,1.5c-0.4,0.4-1,0.8-1.5,1c-0.6,0.3-1.2,0.4-1.9,0.4
			c-0.7,0-1.3-0.1-1.9-0.4c-0.6-0.3-1.1-0.6-1.5-1c-0.4-0.4-0.8-1-1-1.5c-0.3-0.6-0.4-1.2-0.4-1.9v0l0-5.9h1.6l0,5.9v0
			c0,0.5,0.1,0.9,0.3,1.3c0.2,0.4,0.4,0.8,0.7,1c0.3,0.3,0.7,0.5,1,0.7c0.4,0.2,0.8,0.3,1.3,0.3c0.5,0,0.9-0.1,1.3-0.3
			c0.4-0.2,0.8-0.4,1.1-0.7s0.5-0.6,0.7-1C372,227.8,372.1,227.4,372.1,226.9z"/>
		<path d="M374.9,217.5c0-0.3,0.1-0.5,0.3-0.6s0.4-0.3,0.6-0.3c0.3,0,0.5,0.1,0.6,0.3s0.3,0.4,0.3,0.6s-0.1,0.5-0.3,0.6
			s-0.4,0.3-0.6,0.3c-0.3,0-0.5-0.1-0.6-0.3S374.9,217.8,374.9,217.5z M375,221h1.5v10.8H375V221z"/>
		<path d="M379.3,226.3c0,0.6,0.1,1.2,0.3,1.7c0.2,0.5,0.5,1,1,1.4c0.4,0.4,0.9,0.7,1.4,1c0.5,0.2,1.1,0.3,1.7,0.3
			c0.6,0,1.2-0.1,1.7-0.3c0.5-0.2,1-0.5,1.4-1c0.3-0.3,0.5-0.6,0.7-1h1.7l-0.1,0.2c-0.3,0.7-0.7,1.3-1.3,1.9c-0.5,0.5-1.2,1-1.9,1.3
			c-0.7,0.3-1.5,0.5-2.3,0.5c-0.8,0-1.6-0.2-2.3-0.5s-1.3-0.7-1.9-1.3c-0.5-0.5-1-1.2-1.3-1.9c-0.3-0.7-0.5-1.5-0.5-2.3
			c0-0.8,0.2-1.6,0.5-2.3c0.3-0.7,0.7-1.3,1.3-1.9c0.5-0.5,1.2-1,1.9-1.3s1.5-0.5,2.3-0.5c0.8,0,1.6,0.2,2.3,0.5
			c0.7,0.3,1.3,0.7,1.9,1.3c0.5,0.5,1,1.2,1.3,1.9c0.3,0.6,0.4,1.2,0.5,1.9h-10.3C379.3,226,379.3,226.2,379.3,226.3z M386.9,223.2
			c-0.4-0.4-0.9-0.7-1.4-1c-0.5-0.2-1.1-0.3-1.7-0.3c-0.6,0-1.2,0.1-1.7,0.3c-0.5,0.2-1,0.5-1.4,1c-0.3,0.3-0.6,0.7-0.8,1.2h7.9
			C387.5,223.9,387.2,223.6,386.9,223.2z"/>
		<path d="M391,221h1.5v2.1c0.1-0.1,0.2-0.3,0.2-0.3c0.5-0.5,1.2-1,1.9-1.3c0.7-0.3,1.5-0.5,2.3-0.5v1.5c-0.6,0-1.2,0.1-1.7,0.3
			c-0.5,0.2-1,0.5-1.4,1c-0.4,0.4-0.7,0.9-1,1.4s-0.3,1.1-0.3,1.7v4.9H391L391,221z"/>
		<path d="M396.7,226.3c0-0.8,0.2-1.6,0.5-2.3c0.3-0.7,0.7-1.3,1.3-1.9c0.5-0.5,1.2-1,1.9-1.3s1.5-0.5,2.3-0.5
			c0.8,0,1.6,0.2,2.3,0.5c0.7,0.3,1.3,0.7,1.9,1.3c0.5,0.5,1,1.2,1.3,1.9c0.3,0.7,0.5,1.5,0.5,2.3v5.4H407v-1.4
			c-0.1,0.1-0.2,0.2-0.2,0.2c-0.5,0.5-1.2,1-1.9,1.3c-0.7,0.3-1.5,0.5-2.3,0.5c-0.8,0-1.6-0.2-2.3-0.5s-1.3-0.7-1.9-1.3
			c-0.5-0.5-1-1.2-1.3-1.9C396.8,227.9,396.7,227.2,396.7,226.3z M398.2,226.3c0,0.6,0.1,1.2,0.3,1.7c0.2,0.5,0.5,1,1,1.4
			c0.4,0.4,0.9,0.7,1.4,1c0.5,0.2,1.1,0.3,1.7,0.3c0.6,0,1.2-0.1,1.7-0.3c0.5-0.2,1-0.5,1.4-1s0.7-0.9,1-1.4c0.2-0.5,0.3-1,0.3-1.5
			v-0.2c0-0.6-0.1-1.2-0.3-1.7c-0.2-0.5-0.5-1-1-1.4c-0.4-0.4-0.9-0.7-1.4-1c-0.5-0.2-1.1-0.3-1.7-0.3c-0.6,0-1.2,0.1-1.7,0.3
			c-0.5,0.2-1,0.5-1.4,1c-0.4,0.4-0.7,0.9-1,1.4C398.3,225.2,398.2,225.7,398.2,226.3z"/>
		<path d="M416.1,229c0-0.5-0.1-0.9-0.3-1.1s-0.5-0.5-0.9-0.7c-0.4-0.2-0.8-0.3-1.4-0.5c-0.6-0.1-1.1-0.3-1.6-0.5
			c-0.5-0.2-0.9-0.5-1.2-0.9c-0.3-0.4-0.6-0.9-0.6-1.5c-0.1-0.5,0-0.9,0.2-1.3c0.2-0.4,0.4-0.8,0.8-1.1c0.3-0.3,0.7-0.6,1.2-0.8
			c0.5-0.2,1-0.3,1.5-0.3c0.6,0,1.1,0.1,1.5,0.3c0.4,0.2,0.8,0.4,1.1,0.7c0.3,0.3,0.5,0.6,0.7,0.9c0.2,0.3,0.3,0.6,0.3,0.8h-1.6
			c-0.1-0.4-0.4-0.7-0.7-1c-0.4-0.2-0.8-0.3-1.2-0.3c-0.3,0-0.6,0.1-0.9,0.2c-0.3,0.1-0.6,0.3-0.9,0.7c-0.3,0.3-0.4,0.7-0.3,1.1
			c0.1,0.3,0.2,0.6,0.5,0.8s0.6,0.4,1.1,0.5c0.4,0.2,0.9,0.3,1.5,0.5c0.5,0.2,1,0.4,1.5,0.7c0.5,0.3,0.8,0.7,1.1,1.1
			c0.3,0.4,0.4,1,0.4,1.7c0,0.5-0.1,1-0.3,1.4c-0.2,0.4-0.5,0.7-0.8,1c-0.4,0.3-0.8,0.5-1.2,0.6c-0.5,0.1-1,0.2-1.5,0.2
			s-1-0.1-1.5-0.3s-0.9-0.4-1.3-0.8c-0.4-0.3-0.7-0.7-0.9-1.2c-0.2-0.5-0.3-1-0.3-1.6h1.5c0,0.4,0.1,0.7,0.2,1
			c0.2,0.3,0.4,0.6,0.8,0.9c0.4,0.3,0.9,0.4,1.5,0.4c0.7,0,1.2-0.2,1.6-0.5C415.9,229.9,416.1,229.5,416.1,229z"/>
		<path d="M426.1,226.3c0-0.8,0.2-1.6,0.5-2.3c0.3-0.7,0.7-1.3,1.3-1.9c0.5-0.5,1.2-1,1.9-1.3s1.5-0.5,2.3-0.5
			c0.8,0,1.6,0.2,2.3,0.5c0.7,0.3,1.3,0.7,1.9,1.3c0.5,0.5,1,1.2,1.3,1.9c0.3,0.7,0.5,1.5,0.5,2.3v5.4h-1.5v-1.4
			c-0.1,0.1-0.2,0.2-0.2,0.2c-0.5,0.5-1.2,1-1.9,1.3c-0.7,0.3-1.5,0.5-2.3,0.5c-0.8,0-1.6-0.2-2.3-0.5s-1.3-0.7-1.9-1.3
			c-0.5-0.5-1-1.2-1.3-1.9C426.2,227.9,426.1,227.2,426.1,226.3z M427.6,226.3c0,0.6,0.1,1.2,0.3,1.7c0.2,0.5,0.5,1,1,1.4
			c0.4,0.4,0.9,0.7,1.4,1c0.5,0.2,1.1,0.3,1.7,0.3c0.6,0,1.2-0.1,1.7-0.3c0.5-0.2,1-0.5,1.4-1s0.7-0.9,1-1.4c0.2-0.5,0.3-1,0.3-1.5
			v-0.2c0-0.6-0.1-1.2-0.3-1.7c-0.2-0.5-0.5-1-1-1.4c-0.4-0.4-0.9-0.7-1.4-1c-0.5-0.2-1.1-0.3-1.7-0.3c-0.6,0-1.2,0.1-1.7,0.3
			c-0.5,0.2-1,0.5-1.4,1c-0.4,0.4-0.7,0.9-1,1.4C427.7,225.2,427.6,225.7,427.6,226.3z"/>
		<path d="M454.8,226.9V221h1.5v5.9c0,0.7-0.1,1.3-0.4,1.9c-0.3,0.6-0.6,1.1-1,1.5c-0.4,0.4-1,0.8-1.5,1c-0.6,0.3-1.2,0.4-1.9,0.4
			c-0.7,0-1.3-0.1-1.9-0.4c-0.6-0.3-1.1-0.6-1.5-1c-0.4-0.4-0.8-1-1-1.5c-0.3-0.6-0.4-1.2-0.4-1.9v0l0-5.9h1.6l0,5.9v0
			c0,0.5,0.1,0.9,0.3,1.3c0.2,0.4,0.4,0.8,0.7,1c0.3,0.3,0.7,0.5,1,0.7c0.4,0.2,0.8,0.3,1.3,0.3c0.5,0,0.9-0.1,1.3-0.3
			c0.4-0.2,0.8-0.4,1.1-0.7s0.5-0.6,0.7-1C454.7,227.8,454.8,227.4,454.8,226.9z"/>
		<path d="M466,225.3c0-0.5-0.1-0.9-0.3-1.3c-0.2-0.4-0.4-0.8-0.7-1.1c-0.3-0.3-0.7-0.5-1.1-0.7c-0.4-0.2-0.8-0.3-1.3-0.3
			s-0.9,0.1-1.3,0.3c-0.4,0.2-0.8,0.4-1.1,0.7c-0.3,0.3-0.5,0.7-0.7,1.1c-0.2,0.4-0.3,0.8-0.3,1.2l0,6.5h-1.5V221h1.5v1
			c0.1-0.2,0.3-0.4,0.6-0.6c0.2-0.2,0.5-0.4,0.8-0.5c0.3-0.1,0.6-0.2,0.9-0.3c0.3-0.1,0.7-0.1,1-0.1c0.7,0,1.3,0.1,1.9,0.4
			c0.6,0.3,1.1,0.6,1.5,1c0.4,0.4,0.8,1,1,1.6c0.3,0.6,0.4,1.2,0.4,1.9l0,6.5h-1.6L466,225.3z"/>
		<path d="M477.7,226.3c0,0.6,0.1,1.2,0.3,1.7c0.2,0.5,0.5,1,1,1.4c0.4,0.4,0.9,0.7,1.4,1c0.5,0.2,1.1,0.3,1.7,0.3
			c0.6,0,1.2-0.1,1.7-0.3c0.5-0.2,1-0.5,1.4-1c0.3-0.3,0.5-0.6,0.7-1h1.7l-0.1,0.2c-0.3,0.7-0.7,1.3-1.3,1.9c-0.5,0.5-1.2,1-1.9,1.3
			c-0.7,0.3-1.5,0.5-2.3,0.5c-0.8,0-1.6-0.2-2.3-0.5s-1.3-0.7-1.9-1.3c-0.5-0.5-1-1.2-1.3-1.9c-0.3-0.7-0.5-1.5-0.5-2.3
			c0-0.8,0.2-1.6,0.5-2.3c0.3-0.7,0.7-1.3,1.3-1.9c0.5-0.5,1.2-1,1.9-1.3s1.5-0.5,2.3-0.5c0.8,0,1.6,0.2,2.3,0.5
			c0.7,0.3,1.3,0.7,1.9,1.3c0.5,0.5,1,1.2,1.3,1.9l0.1,0.2H486c-0.2-0.4-0.4-0.7-0.7-1c-0.4-0.4-0.9-0.7-1.4-1
			c-0.5-0.2-1.1-0.3-1.7-0.3c-0.6,0-1.2,0.1-1.7,0.3c-0.5,0.2-1,0.5-1.4,1c-0.4,0.4-0.7,0.9-1,1.4
			C477.8,225.2,477.7,225.7,477.7,226.3z"/>
		<path d="M488.5,216.6h1.5v15.1h-1.5V216.6z"/>
		<path d="M491.4,217.5c0-0.3,0.1-0.5,0.3-0.6s0.4-0.3,0.6-0.3c0.3,0,0.5,0.1,0.6,0.3s0.3,0.4,0.3,0.6s-0.1,0.5-0.3,0.6
			s-0.4,0.3-0.6,0.3c-0.3,0-0.5-0.1-0.6-0.3S491.4,217.8,491.4,217.5z M491.5,221h1.5v10.8h-1.5V221z"/>
		<path d="M495.8,226.3c0,0.6,0.1,1.2,0.3,1.7c0.2,0.5,0.5,1,1,1.4c0.4,0.4,0.9,0.7,1.4,1c0.5,0.2,1.1,0.3,1.7,0.3
			c0.6,0,1.2-0.1,1.7-0.3c0.5-0.2,1-0.5,1.4-1c0.3-0.3,0.5-0.6,0.7-1h1.7l-0.1,0.2c-0.3,0.7-0.7,1.3-1.3,1.9c-0.5,0.5-1.2,1-1.9,1.3
			c-0.7,0.3-1.5,0.5-2.3,0.5c-0.8,0-1.6-0.2-2.3-0.5s-1.3-0.7-1.9-1.3c-0.5-0.5-1-1.2-1.3-1.9c-0.3-0.7-0.5-1.5-0.5-2.3
			c0-0.8,0.2-1.6,0.5-2.3c0.3-0.7,0.7-1.3,1.3-1.9c0.5-0.5,1.2-1,1.9-1.3s1.5-0.5,2.3-0.5c0.8,0,1.6,0.2,2.3,0.5
			c0.7,0.3,1.3,0.7,1.9,1.3c0.5,0.5,1,1.2,1.3,1.9l0.1,0.2h-1.7c-0.2-0.4-0.4-0.7-0.7-1c-0.4-0.4-0.9-0.7-1.4-1
			c-0.5-0.2-1.1-0.3-1.7-0.3c-0.6,0-1.2,0.1-1.7,0.3c-0.5,0.2-1,0.5-1.4,1c-0.4,0.4-0.7,0.9-1,1.4
			C495.9,225.2,495.8,225.7,495.8,226.3z"/>
		<path d="M514.2,231.8h-1.9l-4.1-5.4l0,5.4h-1.5l0-15.1h1.5v7.9l4-3.6h1.8l-4.6,4.4L514.2,231.8z"/>
	</g>
</g>
<polygon class="st0" points="118.2,213.2 -3,51.8 166.2,133.2 "/>
<linearGradient id="SVGID_1_" gradientUnits="userSpaceOnUse" x1="2418.2083" y1="105.6294" x2="2584.2124" y2="105.6294" gradientTransform="matrix(-1 0 0 1 2665.5364 0)">
	<stop  offset="0" style="stop-color:#D7A1CA"/>
	<stop  offset="1" style="stop-color:#00A3C4"/>
</linearGradient>
<polygon class="st1" points="247.3,-1.9 118.2,213.2 81.3,164.1 "/>
<polygon class="st2" points="247.3,-1.9 118.2,213.2 81.3,164.1 "/>
<polygon class="st3" points="85.9,170.2 144.1,170.2 118.2,213.2 "/>
<rect x="118.2" y="207" class="st3" width="415.2" height="6.2"/>
<polygon class="st3" points="533.5,213.2 543.7,186.1 524.1,213.2 "/>
</svg>
